HIERARCHY
ROOT hip
{
  OFFSET 0 0 0
  CHANNELS 6 Xposition Yposition Zposition Zrotation Yrotation Xrotation
  JOINT abdomen
  {
    OFFSET 0 20.6881 -0.73152
    CHANNELS 3 Zrotation Xrotation Yrotation
    JOINT chest
    {
      OFFSET 0 11.7043 -0.48768
      CHANNELS 3 Zrotation Xrotation Yrotation
      JOINT neck
      {
        OFFSET 0 22.1894 -2.19456
        CHANNELS 3 Zrotation Xrotation Yrotation
        JOINT head
        {
          OFFSET -0.24384 7.07133 1.2192
          CHANNELS 3 Zrotation Xrotation Yrotation
          JOINT leftEye
          {
            OFFSET 4.14528 8.04674 8.04672
            CHANNELS 3 Zrotation Xrotation Yrotation
            End Site
            {
              OFFSET 1 0 0
            }
          }
          JOINT rightEye
          {
            OFFSET -3.6576 8.04674 8.04672
            CHANNELS 3 Zrotation Xrotation Yrotation
            End Site
            {
              OFFSET 1 0 0
            }
          }
        }
      }
      JOINT rCollar
      {
        OFFSET -2.68224 19.2634 -4.8768
        CHANNELS 3 Zrotation Xrotation Yrotation
        JOINT rShldr
        {
          OFFSET -8.77824 -1.95073 1.46304
          CHANNELS 3 Zrotation Xrotation Yrotation
          JOINT rForeArm
          {
            OFFSET -28.1742 -1.7115 0.48768
            CHANNELS 3 Zrotation Xrotation Yrotation
            JOINT rHand
            {
              OFFSET -22.5879 0.773209 7.07136
              CHANNELS 3 Zrotation Xrotation Yrotation
              JOINT rThumb1
              {
                OFFSET -1.2192 -0.487915 3.41376
                CHANNELS 3 Zrotation Xrotation Yrotation
                JOINT rThumb2
                {
                  OFFSET -3.37035 -0.52449 3.41376
                  CHANNELS 3 Zrotation Xrotation Yrotation
                  End Site
                  {
                    OFFSET -1.78271 -1.18214 1.43049
                  }
                }
              }
              JOINT rIndex1
              {
                OFFSET -7.75947 0.938293 5.60832
                CHANNELS 3 Zrotation Xrotation Yrotation
                JOINT rIndex2
                {
                  OFFSET -2.54057 -0.884171 1.56538
                  CHANNELS 3 Zrotation Xrotation Yrotation
                  End Site
                  {
                    OFFSET -1.62519 -0.234802 1.16502
                  }
                }
              }
              JOINT rMid1
              {
                OFFSET -8.24714 1.18213 3.41376
                CHANNELS 3 Zrotation Xrotation Yrotation
                JOINT rMid2
                {
                  OFFSET -3.10165 -0.590103 1.0647
                  CHANNELS 3 Zrotation Xrotation Yrotation
                  End Site
                  {
                    OFFSET -2.48547 -0.328903 0.83742
                  }
                }
              }
              JOINT rRing1
              {
                OFFSET -8.82822 0.546677 1.51678
                CHANNELS 3 Zrotation Xrotation Yrotation
                JOINT rRing2
                {
                  OFFSET -2.60934 -0.819778 -0.0198488
                  CHANNELS 3 Zrotation Xrotation Yrotation
                  End Site
                  {
                    OFFSET -2.33842 -0.294052 0.168128
                  }
                }
              }
              JOINT rPinky1
              {
                OFFSET -8.27202 -0.0477905 -0.4584
                CHANNELS 3 Zrotation Xrotation Yrotation
                JOINT rPinky2
                {
                  OFFSET -1.82734 -0.647385 -0.700984
                  CHANNELS 3 Zrotation Xrotation Yrotation
                  End Site
                  {
                    OFFSET -1.69225 -0.51767 -0.607171
                  }
                }
              }
            }
          }
        }
      }
      JOINT lCollar
      {
        OFFSET 2.68224 19.2634 -4.8768
        CHANNELS 3 Zrotation Xrotation Yrotation
        JOINT lShldr
        {
          OFFSET 8.77824 -1.95073 1.46304
          CHANNELS 3 Zrotation Xrotation Yrotation
          JOINT lForeArm
          {
            OFFSET 28.1742 -1.7115 0.48768
            CHANNELS 3 Zrotation Xrotation Yrotation
            JOINT lHand
            {
              OFFSET 22.5879 0.773209 7.07136
              CHANNELS 3 Zrotation Xrotation Yrotation
              JOINT lThumb1
              {
                OFFSET 1.2192 -0.487915 3.41376
                CHANNELS 3 Zrotation Xrotation Yrotation
                JOINT lThumb2
                {
                  OFFSET 3.37035 -0.52449 3.41376
                  CHANNELS 3 Zrotation Xrotation Yrotation
                  End Site
                  {
                    OFFSET 1.78271 -1.18214 1.43049
                  }
                }
              }
              JOINT lIndex1
              {
                OFFSET 7.75947 0.938293 5.60832
                CHANNELS 3 Zrotation Xrotation Yrotation
                JOINT lIndex2
                {
                  OFFSET 2.54057 -0.884171 1.56538
                  CHANNELS 3 Zrotation Xrotation Yrotation
                  End Site
                  {
                    OFFSET 1.62519 -0.234802 1.16502
                  }
                }
              }
              JOINT lMid1
              {
                OFFSET 8.24714 1.18213 3.41376
                CHANNELS 3 Zrotation Xrotation Yrotation
                JOINT lMid2
                {
                  OFFSET 3.10165 -0.590103 1.0647
                  CHANNELS 3 Zrotation Xrotation Yrotation
                  End Site
                  {
                    OFFSET 2.48547 -0.328903 0.83742
                  }
                }
              }
              JOINT lRing1
              {
                OFFSET 8.82822 0.546677 1.51678
                CHANNELS 3 Zrotation Xrotation Yrotation
                JOINT lRing2
                {
                  OFFSET 2.60934 -0.819778 -0.0198488
                  CHANNELS 3 Zrotation Xrotation Yrotation
                  End Site
                  {
                    OFFSET 2.33842 -0.294052 0.168128
                  }
                }
              }
              JOINT lPinky1
              {
                OFFSET 8.27202 -0.0477905 -0.4584
                CHANNELS 3 Zrotation Xrotation Yrotation
                JOINT lPinky2
                {
                  OFFSET 1.82734 -0.647385 -0.700984
                  CHANNELS 3 Zrotation Xrotation Yrotation
                  End Site
                  {
                    OFFSET 1.69225 -0.51767 -0.607171
                  }
                }
              }
            }
          }
        }
      }
    }
  }
  JOINT rButtock
  {
    OFFSET -8.77824 4.35084 1.2192
    CHANNELS 3 Zrotation Xrotation Yrotation
    JOINT rThigh
    {
      OFFSET 0 -1.70687 -2.19456
      CHANNELS 3 Zrotation Xrotation Yrotation
      JOINT rShin
      {
        OFFSET 0 -36.8199 0.73152
        CHANNELS 3 Zrotation Xrotation Yrotation
        JOINT rFoot
        {
          OFFSET 0.73152 -45.1104 -5.12064
          CHANNELS 3 Zrotation Xrotation Yrotation
          End Site
          {
            OFFSET -1.1221 -3.69964 12.103
          }
        }
      }
    }
  }
  JOINT lButtock
  {
    OFFSET 8.77824 4.35084 1.2192
    CHANNELS 3 Zrotation Xrotation Yrotation
    JOINT lThigh
    {
      OFFSET 0 -1.70687 -2.19456
      CHANNELS 3 Zrotation Xrotation Yrotation
      JOINT lShin
      {
        OFFSET 0 -36.8199 0.73152
        CHANNELS 3 Zrotation Xrotation Yrotation
        JOINT lFoot
        {
          OFFSET -0.73152 -45.1104 -5.12064
          CHANNELS 3 Zrotation Xrotation Yrotation
          End Site
          {
            OFFSET 1.1221 -3.69964 12.103
          }
        }
      }
    }
  }
}
MOTION
Frames:	4
Frame Time:	0.03333
0.7627548655371212 33.138684494311185 20.23783775750394 3.909132719039917 19.243568420410156 5.69288444519043 -10.860045433044434 10.436280250549316 0.15870729088783264 5.661012172698975 -8.856457710266113 0.25865668058395386 -7.506373882293701 16.561538696289062 -8.167831420898438 12.17451000213623 -25.96490478515625 -13.554186820983887 0.1323205530643463 -0.02813783660531044 0.04045998677611351 -0.05308478698134422 0.12790775299072266 0.010712013579905033 -0.024538055062294006 0.01866556517779827 0.11664795130491257 43.135589599609375 30.244619369506836 14.256460189819336 -28.150671005249023 -30.685609817504883 68.5291519165039 -0.04846454784274101 -5.172942638397217 -0.9059691429138184 -0.03238871693611145 0.04699781537055969 -0.17304587364196777 0.06448476761579514 0.08074194937944412 0.028671525418758392 0.016294395551085472 0.09191282093524933 0.10434181988239288 7.722580432891846 5.554386138916016 0.4215393364429474 -0.16290996968746185 -0.05225159972906113 -0.1042383462190628 2.807238817214966 0.9823155999183655 0.06796255707740784 0.11985160410404205 0.003088576253503561 0.05653741583228111 10.250529289245605 0.6739412546157837 -0.06313838809728622 -0.04851559177041054 -0.11804813891649246 -0.13779190182685852 2.214287519454956 -0.6881787180900574 -0.2770112156867981 0.10537257790565491 -0.1133686974644661 -0.15967844426631927 -57.7588005065918 54.9210205078125 -20.123470306396484 28.031896591186523 -40.4067497253418 -85.12340545654297 1.306781530380249 -31.35651969909668 4.861145496368408 -0.004343234468251467 -0.08390722423791885 -0.1003117710351944 0.04685589298605919 0.21413357555866241 0.02665461041033268 -0.09706511348485947 0.05054256692528725 0.034981511533260345 -7.828935623168945 5.443571090698242 -0.2752319276332855 0.1628875434398651 0.0007617673254571855 -0.049941111356019974 -2.983173370361328 1.0568366050720215 -0.3303612470626831 0.005587121471762657 -0.047386106103658676 -0.001136523438617587 -10.203426361083984 0.6995450854301453 0.09037964791059494 0.09505590796470642 0.0228277500718832 0.017612366005778313 -2.1648342609405518 -0.7965269088745117 0.1200936883687973 0.049139637500047684 0.01855536550283432 -0.03722679615020752 -45.7248420715332 -60.00525665283203 -42.255924224853516 -2.1682546138763428 69.77607727050781 2.433863401412964 1.7494317293167114 -3.8967785835266113 11.365718841552734 -0.03180091083049774 0.08029382675886154 -0.0013208272866904736 10.566862106323242 2.0232415199279785 6.003300189971924 0.051644403487443924 45.097415924072266 -3.124645709991455 16.1107120513916 -23.609466552734375 37.90227508544922
0.8150600273142559 33.063029903969536 20.522488852691556 3.937304973602295 19.396272659301758 5.526926040649414 -11.003518104553223 10.404777526855469 0.15883223712444305 5.687819480895996 -8.800308227539062 0.27141880989074707 -7.532405853271484 16.533061981201172 -8.211688041687012 12.223158836364746 -25.858661651611328 -13.59793472290039 0.12950187921524048 -0.04608232155442238 0.050854239612817764 -0.049466244876384735 0.12952274084091187 0.025325512513518333 -0.03738699108362198 0.01764332316815853 0.12171702086925507 43.41777801513672 30.30229949951172 13.949372291564941 -28.144922256469727 -30.631317138671875 68.4527359008789 -0.06798222661018372 -5.063619136810303 -0.8926247954368591 -0.01933836191892624 0.04727283492684364 -0.1750023514032364 0.06037522852420807 0.07909184694290161 0.03414470702409744 0.026386156678199768 0.08493515104055405 0.09764660894870758 7.725730895996094 5.536556720733643 0.44161564111709595 -0.16723588109016418 -0.05856957659125328 -0.10190483927726746 2.813534736633301 0.9918972849845886 0.07318443804979324 0.11918623745441437 0.01617424748837948 0.041695378720760345 10.274063110351562 0.6779054403305054 -0.05260574817657471 -0.04851431027054787 -0.12494193762540817 -0.14750774204730988 2.2147271633148193 -0.6994401216506958 -0.2742425203323364 0.10264290869235992 -0.10906495153903961 -0.15881472826004028 -58.07444381713867 54.839683532714844 -19.808916091918945 28.00507354736328 -40.403045654296875 -85.11738586425781 1.3214707374572754 -31.429147720336914 4.885359287261963 -0.00789657048881054 -0.08747720718383789 -0.10352324694395065 0.041501790285110474 0.2212146669626236 0.008300337009131908 -0.09970922768115997 0.030355136841535568 0.03505608066916466 -7.83039665222168 5.450377941131592 -0.2866540551185608 0.16209381818771362 0.0032872369047254324 -0.026965780183672905 -2.986685037612915 1.053871512413025 -0.340137779712677 0.014512610621750355 -0.045924242585897446 0.004826619289815426 -10.195411682128906 0.6952762007713318 0.10186154395341873 0.10386620461940765 0.02361232228577137 0.011213302612304688 -2.173996686935425 -0.8128803372383118 0.12581732869148254 0.046105436980724335 0.014705631881952286 -0.04344244673848152 -45.89651107788086 -59.934791564941406 -42.34630584716797 -2.27722430229187 70.13136291503906 2.5122087001800537 1.8344597816467285 -4.086490631103516 11.326628684997559 -0.0362701378762722 0.07351744174957275 -0.02233166992664337 10.724600791931152 2.1183199882507324 5.994242191314697 0.05669739842414856 45.29168701171875 -3.138731002807617 16.22884750366211 -23.781681060791016 37.99720001220703
0.8808754099913814 33.013446145689834 20.80210343041823 3.962712049484253 19.59300994873047 5.357217788696289 -11.138761520385742 10.390396118164062 0.16357026994228363 5.7191972732543945 -8.738916397094727 0.28357115387916565 -7.568458557128906 16.527889251708984 -8.303204536437988 12.302401542663574 -25.767343521118164 -13.724035263061523 0.12615248560905457 -0.061183031648397446 0.05827346444129944 -0.04339195787906647 0.12888003885746002 0.0385156087577343 -0.050511498004198074 0.013880778104066849 0.12221911549568176 43.69210433959961 30.293649673461914 13.633445739746094 -28.14299774169922 -30.585124969482422 68.36795043945312 -0.08876888453960419 -4.9502129554748535 -0.8784397840499878 -0.006291638128459454 0.04896928369998932 -0.1776926964521408 0.05746491253376007 0.08085762709379196 0.040579039603471756 0.03397853672504425 0.07793142646551132 0.09447605907917023 7.728701114654541 5.517760276794434 0.46139729022979736 -0.16951292753219604 -0.05823558196425438 -0.09750135987997055 2.820894956588745 1.0054370164871216 0.07848809659481049 0.11728639900684357 0.029979566112160683 0.03128477558493614 10.298741340637207 0.682654619216919 -0.03969206288456917 -0.049774568527936935 -0.12626589834690094 -0.15249086916446686 2.2154886722564697 -0.7136688232421875 -0.26833289861679077 0.1031089797616005 -0.10588723421096802 -0.15652881562709808 -58.52684783935547 54.757904052734375 -19.3144588470459 27.979928970336914 -40.394412994384766 -85.08551025390625 1.3265303373336792 -31.41620445251465 4.889684677124023 -0.012188068591058254 -0.09383970499038696 -0.10695695877075195 0.03625163435935974 0.2265819013118744 -0.010042850859463215 -0.10210390388965607 0.00948577281087637 0.03419821336865425 -7.832066535949707 5.4546308517456055 -0.2995576858520508 0.1619541198015213 0.003220633137971163 -0.004675263073295355 -2.992025375366211 1.0488660335540771 -0.3490636944770813 0.023978086188435555 -0.044411737471818924 0.011711173690855503 -10.186285018920898 0.6919845938682556 0.10821080952882767 0.11181523650884628 0.022434359416365623 0.01014179177582264 -2.178844690322876 -0.8304246664047241 0.13284514844417572 0.04141338914632797 0.011483822017908096 -0.046437934041023254 -45.99827575683594 -59.84388732910156 -42.302608489990234 -2.36838698387146 70.37272644042969 2.572702169418335 1.9198576211929321 -4.229061126708984 11.361368179321289 -0.0383698046207428 0.06716982275247574 -0.04521476849913597 10.87265682220459 2.2220633029937744 5.923268795013428 0.06447744369506836 45.41810989379883 -3.150599718093872 16.31646728515625 -23.941579818725586 38.03193664550781
0.9600698525920924 32.97612940715947 21.077841929151774 3.982210874557495 19.812021255493164 5.203286170959473 -11.261940956115723 10.40058422088623 0.18490052223205566 5.742452621459961 -8.679597854614258 0.2952515482902527 -7.603760719299316 16.540979385375977 -8.406634330749512 12.395522117614746 -25.71146011352539 -13.870573997497559 0.11951728165149689 -0.07111742347478867 0.06287404894828796 -0.03753829747438431 0.12502874433994293 0.05038022622466087 -0.06127181649208069 0.007678808178752661 0.12029165774583817 43.908546447753906 30.27379035949707 13.382261276245117 -28.14377212524414 -30.572229385375977 68.33454895019531 -0.1086055114865303 -4.847923755645752 -0.8675705790519714 0.006930914241820574 0.05205463990569115 -0.1820676177740097 0.05443243309855461 0.08329703658819199 0.04730958119034767 0.03977835550904274 0.07365389168262482 0.09189125895500183 7.732290267944336 5.500191688537598 0.4771863520145416 -0.1708439588546753 -0.05416049063205719 -0.09161774814128876 2.8296215534210205 1.018907904624939 0.08107483386993408 0.11628212034702301 0.04256129264831543 0.022449154406785965 10.322800636291504 0.687188446521759 -0.02756204642355442 -0.051623228937387466 -0.12512116134166718 -0.15368777513504028 2.214858055114746 -0.7283186912536621 -0.26071053743362427 0.10217388719320297 -0.10413022339344025 -0.15159764885902405 -58.98807907104492 54.700462341308594 -18.810775756835938 27.959373474121094 -40.38552474975586 -85.057861328125 1.3333724737167358 -31.416847229003906 4.898857116699219 -0.016564877703785896 -0.10116901993751526 -0.10885810106992722 0.03257591277360916 0.2316228747367859 -0.023160189390182495 -0.10330524295568466 -0.00993311032652855 0.028989946469664574 -7.8337321281433105 5.4590983390808105 -0.3115997910499573 0.1616402268409729 0.006536400411278009 0.01523816492408514 -2.9997379779815674 1.0432137250900269 -0.35474759340286255 0.03136103227734566 -0.04407158121466637 0.01738552935421467 -10.17729377746582 0.6912499666213989 0.10827913135290146 0.11905943602323532 0.024423768743872643 0.007665093522518873 -2.181065797805786 -0.8470707535743713 0.14098480343818665 0.037276867777109146 0.009892691858112812 -0.048293277621269226 -46.131595611572266 -59.73008346557617 -42.29849624633789 -2.4451584815979004 70.57373046875 2.623631000518799 2.0055127143859863 -4.342946529388428 11.43644905090332 -0.03937434032559395 0.061967216432094574 -0.06681747734546661 11.039502143859863 2.3166685104370117 5.8570356369018555 0.07528312504291534 45.517982482910156 -3.162323236465454 16.37497901916504 -24.073850631713867 38.03168487548828
